<svg width="203" height="52" viewBox="0 0 203 52" fill="none" xmlns="http://www.w3.org/2000/svg">
<path d="M200.901 51.9951C201.451 52.0498 201.941 51.6486 201.995 51.099L202.886 42.1432C202.941 41.5936 202.54 41.1038 201.99 41.0491C201.44 40.9944 200.951 41.3956 200.896 41.9452L200.104 49.9059L192.143 49.1141C191.594 49.0594 191.104 49.4606 191.049 50.0102C190.995 50.5598 191.396 51.0496 191.945 51.1043L200.901 51.9951ZM0.448953 35.5185C-0.0118701 35.8229 -0.138674 36.4432 0.165729 36.904C0.470131 37.3649 1.09047 37.4917 1.55129 37.1873L1.00012 36.3529L0.448953 35.5185ZM201 51L201.774 50.3664C175.506 18.2963 144.006 2.09213 109.597 0.190133C75.2194 -1.7101 38.0639 10.6714 0.448953 35.5185L1.00012 36.3529L1.55129 37.1873C38.9363 12.4921 75.6698 0.317849 109.487 2.18708C143.272 4.05456 174.272 19.9451 200.227 51.6336L201 51Z" fill="white"/>
</svg>
